# xmcd
#
# Track frame offsets: 
#        150
#        15744
#        30735
#        47815
#        64498
#        82028
#        96965
#        120868
#        136239
#        149034
#
# Disc length: 2254 seconds
#
# Revision: 0
# Processed by: cddbd v1.5.2PL0 Copyright (c) Steve Scherf et al.
# Submitted via: ExactAudioCopy v1.0b6
#
DISCID=8d08cc0a
DTITLE=Martyna Jakubowicz - Prosta Piosenka
DYEAR=2016
DGENRE=Blues Rock Folk
TTITLE0=Jestem niby hak
TTITLE1=Kota na kolanach mam
TTITLE2=Macherzy od pieniędzy
TTITLE3=Rzeka miłości, morze radości, ocean szczęścia
TTITLE4=Mój czas ucieka
TTITLE5=Wielka słabość
TTITLE6=Rządzi zło
TTITLE7=Fiolety
TTITLE8=Busz a la blues
TTITLE9=Ja płonę
EXTD=
EXTT0=
EXTT1=
EXTT2=
EXTT3=
EXTT4=
EXTT5=
EXTT6=
EXTT7=
EXTT8=
EXTT9=
PLAYORDER=
